<?xml version="1.0" encoding="utf-8"?>
<svg xmlns="http://www.w3.org/2000/svg" xmlns:xlink="http://www.w3.org/1999/xlink" style="margin: auto; background: transparent; display: block; shape-rendering: auto;" width="200px" height="200px" viewBox="0 0 100 100" preserveAspectRatio="xMidYMid">
<g transform="rotate(0 50 50)">
  <rect x="48.5" y="5" rx="1.5" ry="17" width="3" height="50" fill="#593bdd">
    <animate attributeName="opacity" values="1;0" keyTimes="0;1" dur="1s" begin="-0.9642857142857143s" repeatCount="indefinite"></animate>
  </rect>
</g><g transform="rotate(12.857142857142858 50 50)">
  <rect x="48.5" y="5" rx="1.5" ry="17" width="3" height="50" fill="#593bdd">
    <animate attributeName="opacity" values="1;0" keyTimes="0;1" dur="1s" begin="-0.9285714285714286s" repeatCount="indefinite"></animate>
  </rect>
</g><g transform="rotate(25.714285714285715 50 50)">
  <rect x="48.5" y="5" rx="1.5" ry="17" width="3" height="50" fill="#593bdd">
    <animate attributeName="opacity" values="1;0" keyTimes="0;1" dur="1s" begin="-0.8928571428571429s" repeatCount="indefinite"></animate>
  </rect>
</g><g transform="rotate(38.57142857142857 50 50)">
  <rect x="48.5" y="5" rx="1.5" ry="17" width="3" height="50" fill="#593bdd">
    <animate attributeName="opacity" values="1;0" keyTimes="0;1" dur="1s" begin="-0.8571428571428571s" repeatCount="indefinite"></animate>
  </rect>
</g><g transform="rotate(51.42857142857143 50 50)">
  <rect x="48.5" y="5" rx="1.5" ry="17" width="3" height="50" fill="#593bdd">
    <animate attributeName="opacity" values="1;0" keyTimes="0;1" dur="1s" begin="-0.8214285714285714s" repeatCount="indefinite"></animate>
  </rect>
</g><g transform="rotate(64.28571428571429 50 50)">
  <rect x="48.5" y="5" rx="1.5" ry="17" width="3" height="50" fill="#593bdd">
    <animate attributeName="opacity" values="1;0" keyTimes="0;1" dur="1s" begin="-0.7857142857142857s" repeatCount="indefinite"></animate>
  </rect>
</g><g transform="rotate(77.14285714285714 50 50)">
  <rect x="48.5" y="5" rx="1.5" ry="17" width="3" height="50" fill="#593bdd">
    <animate attributeName="opacity" values="1;0" keyTimes="0;1" dur="1s" begin="-0.75s" repeatCount="indefinite"></animate>
  </rect>
</g><g transform="rotate(90 50 50)">
  <rect x="48.5" y="5" rx="1.5" ry="17" width="3" height="50" fill="#593bdd">
    <animate attributeName="opacity" values="1;0" keyTimes="0;1" dur="1s" begin="-0.7142857142857143s" repeatCount="indefinite"></animate>
  </rect>
</g><g transform="rotate(102.85714285714286 50 50)">
  <rect x="48.5" y="5" rx="1.5" ry="17" width="3" height="50" fill="#593bdd">
    <animate attributeName="opacity" values="1;0" keyTimes="0;1" dur="1s" begin="-0.6785714285714286s" repeatCount="indefinite"></animate>
  </rect>
</g><g transform="rotate(115.71428571428571 50 50)">
  <rect x="48.5" y="5" rx="1.5" ry="17" width="3" height="50" fill="#593bdd">
    <animate attributeName="opacity" values="1;0" keyTimes="0;1" dur="1s" begin="-0.6428571428571429s" repeatCount="indefinite"></animate>
  </rect>
</g><g transform="rotate(128.57142857142858 50 50)">
  <rect x="48.5" y="5" rx="1.5" ry="17" width="3" height="50" fill="#593bdd">
    <animate attributeName="opacity" values="1;0" keyTimes="0;1" dur="1s" begin="-0.6071428571428571s" repeatCount="indefinite"></animate>
  </rect>
</g><g transform="rotate(141.42857142857142 50 50)">
  <rect x="48.5" y="5" rx="1.5" ry="17" width="3" height="50" fill="#593bdd">
    <animate attributeName="opacity" values="1;0" keyTimes="0;1" dur="1s" begin="-0.5714285714285714s" repeatCount="indefinite"></animate>
  </rect>
</g><g transform="rotate(154.28571428571428 50 50)">
  <rect x="48.5" y="5" rx="1.5" ry="17" width="3" height="50" fill="#593bdd">
    <animate attributeName="opacity" values="1;0" keyTimes="0;1" dur="1s" begin="-0.5357142857142857s" repeatCount="indefinite"></animate>
  </rect>
</g><g transform="rotate(167.14285714285714 50 50)">
  <rect x="48.5" y="5" rx="1.5" ry="17" width="3" height="50" fill="#593bdd">
    <animate attributeName="opacity" values="1;0" keyTimes="0;1" dur="1s" begin="-0.5s" repeatCount="indefinite"></animate>
  </rect>
</g><g transform="rotate(180 50 50)">
  <rect x="48.5" y="5" rx="1.5" ry="17" width="3" height="50" fill="#593bdd">
    <animate attributeName="opacity" values="1;0" keyTimes="0;1" dur="1s" begin="-0.4642857142857143s" repeatCount="indefinite"></animate>
  </rect>
</g><g transform="rotate(192.85714285714286 50 50)">
  <rect x="48.5" y="5" rx="1.5" ry="17" width="3" height="50" fill="#593bdd">
    <animate attributeName="opacity" values="1;0" keyTimes="0;1" dur="1s" begin="-0.42857142857142855s" repeatCount="indefinite"></animate>
  </rect>
</g><g transform="rotate(205.71428571428572 50 50)">
  <rect x="48.5" y="5" rx="1.5" ry="17" width="3" height="50" fill="#593bdd">
    <animate attributeName="opacity" values="1;0" keyTimes="0;1" dur="1s" begin="-0.39285714285714285s" repeatCount="indefinite"></animate>
  </rect>
</g><g transform="rotate(218.57142857142858 50 50)">
  <rect x="48.5" y="5" rx="1.5" ry="17" width="3" height="50" fill="#593bdd">
    <animate attributeName="opacity" values="1;0" keyTimes="0;1" dur="1s" begin="-0.35714285714285715s" repeatCount="indefinite"></animate>
  </rect>
</g><g transform="rotate(231.42857142857142 50 50)">
  <rect x="48.5" y="5" rx="1.5" ry="17" width="3" height="50" fill="#593bdd">
    <animate attributeName="opacity" values="1;0" keyTimes="0;1" dur="1s" begin="-0.32142857142857145s" repeatCount="indefinite"></animate>
  </rect>
</g><g transform="rotate(244.28571428571428 50 50)">
  <rect x="48.5" y="5" rx="1.5" ry="17" width="3" height="50" fill="#593bdd">
    <animate attributeName="opacity" values="1;0" keyTimes="0;1" dur="1s" begin="-0.2857142857142857s" repeatCount="indefinite"></animate>
  </rect>
</g><g transform="rotate(257.14285714285717 50 50)">
  <rect x="48.5" y="5" rx="1.5" ry="17" width="3" height="50" fill="#593bdd">
    <animate attributeName="opacity" values="1;0" keyTimes="0;1" dur="1s" begin="-0.25s" repeatCount="indefinite"></animate>
  </rect>
</g><g transform="rotate(270 50 50)">
  <rect x="48.5" y="5" rx="1.5" ry="17" width="3" height="50" fill="#593bdd">
    <animate attributeName="opacity" values="1;0" keyTimes="0;1" dur="1s" begin="-0.21428571428571427s" repeatCount="indefinite"></animate>
  </rect>
</g><g transform="rotate(282.85714285714283 50 50)">
  <rect x="48.5" y="5" rx="1.5" ry="17" width="3" height="50" fill="#593bdd">
    <animate attributeName="opacity" values="1;0" keyTimes="0;1" dur="1s" begin="-0.17857142857142858s" repeatCount="indefinite"></animate>
  </rect>
</g><g transform="rotate(295.7142857142857 50 50)">
  <rect x="48.5" y="5" rx="1.5" ry="17" width="3" height="50" fill="#593bdd">
    <animate attributeName="opacity" values="1;0" keyTimes="0;1" dur="1s" begin="-0.14285714285714285s" repeatCount="indefinite"></animate>
  </rect>
</g><g transform="rotate(308.57142857142856 50 50)">
  <rect x="48.5" y="5" rx="1.5" ry="17" width="3" height="50" fill="#593bdd">
    <animate attributeName="opacity" values="1;0" keyTimes="0;1" dur="1s" begin="-0.10714285714285714s" repeatCount="indefinite"></animate>
  </rect>
</g><g transform="rotate(321.42857142857144 50 50)">
  <rect x="48.5" y="5" rx="1.5" ry="17" width="3" height="50" fill="#593bdd">
    <animate attributeName="opacity" values="1;0" keyTimes="0;1" dur="1s" begin="-0.07142857142857142s" repeatCount="indefinite"></animate>
  </rect>
</g><g transform="rotate(334.2857142857143 50 50)">
  <rect x="48.5" y="5" rx="1.5" ry="17" width="3" height="50" fill="#593bdd">
    <animate attributeName="opacity" values="1;0" keyTimes="0;1" dur="1s" begin="-0.03571428571428571s" repeatCount="indefinite"></animate>
  </rect>
</g><g transform="rotate(347.14285714285717 50 50)">
  <rect x="48.5" y="5" rx="1.5" ry="17" width="3" height="50" fill="#593bdd">
    <animate attributeName="opacity" values="1;0" keyTimes="0;1" dur="1s" begin="0s" repeatCount="indefinite"></animate>
  </rect>
</g>
<!-- [ldio] generated by https://loading.io/ --></svg>